Coordinates
version=1
nRows=29
nColumns=22
inDegrees=yes

Units are S.I. units (second, meters, Newtons, ...)
If the header above contains a line with 'inDegrees', this indicates whether rotational values are in degrees (yes) or radians (no).

endheader
time	pelvis_tilt	pelvis_list	pelvis_rotation	pelvis_tx	pelvis_ty	pelvis_tz	hip_flexion_r	hip_adduction_r	hip_rotation_r	knee_angle_r	ankle_angle_r	subtalar_angle_r	hip_flexion_l	hip_adduction_l	hip_rotation_l	knee_angle_l	ankle_angle_l	subtalar_angle_l	lumbar_extension	lumbar_bending	lumbar_rotation
      2.98000000	     -3.76204830	     -4.29658088	    -19.06456650	     -0.46458778	      0.85103693	      0.17229019	     28.12488965	      1.82918081	      5.23060085	    -28.25176226	      6.34938357	      7.08689048	      2.54276277	     -7.65675074	     -1.42515738	    -57.95911707	      4.57629324	     -0.03720696	     -4.96498634	      6.45122773	     10.68513016
      2.99000000	     -3.77150452	     -4.76790410	    -18.30144375	     -0.45610504	      0.85217366	      0.17567019	     27.37347620	      2.11256959	      4.53218973	    -28.52677859	      7.15745760	      6.67422851	      4.43168457	     -8.95443409	     -2.24209214	    -61.12160644	      4.05595472	     -0.72544940	     -5.12318741	      6.96723057	     10.99965527
      3.00000000	     -3.76297092	     -5.18944535	    -17.46563252	     -0.44781083	      0.85338756	      0.17873426	     26.59582636	      2.32831330	      3.82575209	    -28.70833184	      7.89021510	      6.28990970	      6.35959476	    -10.18863016	     -2.90373727	    -64.03509582	      4.00823333	     -1.61458952	     -5.27972725	      7.41189400	     11.28500326
      3.01000000	     -3.72314675	     -5.52504402	    -16.57752878	     -0.43969193	      0.85470620	      0.18148191	     25.78697346	      2.44663715	      3.14072635	    -28.79445607	      8.58405707	      5.91759430	      8.29808254	    -11.27631054	     -3.43796814	    -66.64429712	      4.34700352	     -2.75143965	     -5.43585569	      7.74403757	     11.54286193
      3.02000000	     -3.64834744	     -5.75831398	    -15.65526236	     -0.43175142	      0.85613539	      0.18389831	     24.96785807	      2.44734367	      2.45009129	    -28.82473038	      9.20269220	      5.59867605	     10.22868218	    -12.16681355	     -3.87853116	    -68.91941235	      4.94771295	     -4.00205402	     -5.59871969	      7.95233306	     11.79174331
      3.03000000	     -3.54646937	     -5.86880201	    -14.72308679	     -0.42395135	      0.85767737	      0.18598386	     24.13977231	      2.31316510	      1.75797313	    -28.78620554	      9.76545484	      5.32256271	     12.13150190	    -12.81147643	     -4.27092915	    -70.82642895	      5.67020103	     -5.28213105	     -5.75347289	      8.02274826	     12.06930449
      3.04000000	     -3.42726386	     -5.86330373	    -13.80530708	     -0.41630138	      0.85931752	      0.18778131	     23.30951692	      2.06645536	      1.10472435	    -28.68964242	     10.28680522	      5.09590017	     13.99273389	    -13.21428177	     -4.66252893	    -72.36000327	      6.37383816	     -6.44222357	     -5.90035760	      7.96944711	     12.36913072
      3.05000000	     -3.27879999	     -5.74486503	    -12.91988286	     -0.40873307	      0.86107678	      0.18930798	     22.45066713	      1.70572879	      0.48539730	    -28.52464805	     10.76547777	      4.91198751	     15.75254225	    -13.36748973	     -5.09485340	    -73.49701292	      7.02198942	     -7.38779879	     -6.04819447	      7.79648192	     12.71038405
      3.06000000	     -3.09193528	     -5.53244410	    -12.08333718	     -0.40121314	      0.86297127	      0.19063449	     21.54541638	      1.25010562	     -0.12039526	    -28.29626370	     11.20183053	      4.78294660	     17.36141003	    -13.31212370	     -5.61498111	    -74.22394207	      7.56063089	     -7.96685203	     -6.21447515	      7.51827413	     13.09700017
      3.07000000	     -2.88202656	     -5.26826953	    -11.34637795	     -0.39376025	      0.86494337	      0.19184585	     20.59746600	      0.77566117	     -0.61521234	    -28.00065715	     11.61002480	      4.67780821	     18.80703847	    -13.12583021	     -6.26831128	    -74.57109450	      7.99223777	     -8.29932722	     -6.39653589	      7.18514608	     13.61042722
      3.08000000	     -2.68439639	     -5.01452362	    -10.69534897	     -0.38635085	      0.86692290	      0.19297584	     19.61771840	      0.34187858	     -1.06164939	    -27.61552675	     11.98341151	      4.63960646	     20.11849112	    -12.91291282	     -7.03431056	    -74.56599787	      8.38107108	     -8.27054310	     -6.56343905	      6.87240269	     14.21421116
      3.09000000	     -2.40672285	     -4.68620684	    -10.14018726	     -0.37892695	      0.86907272	      0.19401680	     18.53993013	     -0.16668268	     -1.47696468	    -27.16724095	     12.29295247	      4.58853671	     21.16636767	    -12.58311343	     -7.98022352	    -74.15409819	      8.60834753	     -7.96146123	     -6.79684451	      6.46125582	     14.91099071
      3.10000000	     -2.14968876	     -4.40119548	     -9.67049829	     -0.37153887	      0.87117381	      0.19502997	     17.42960313	     -0.59814108	     -1.84209971	    -26.62109469	     12.57215442	      4.59018871	     22.08186632	    -12.31461012	     -9.03228615	    -73.42843418	      8.83831310	     -7.33390370	     -7.00835431	      6.10028599	     15.69346107
      3.11000000	     -1.91055522	     -4.14544930	     -9.27153447	     -0.36416956	      0.87321026	      0.19599568	     16.30414967	     -0.97924651	     -2.19540656	    -26.01044995	     12.80947151	      4.62390668	     22.86804586	    -12.09795093	    -10.17433197	    -72.40278553	      9.07030641	     -6.49002413	     -7.19243802	      5.77064757	     16.54298631
      3.12000000	     -1.68707654	     -3.90155564	     -8.93897078	     -0.35682126	      0.87517571	      0.19693017	     15.16924841	     -1.32784432	     -2.51867923	    -25.34122063	     13.02180414	      4.66589540	     23.52718083	    -11.93800339	    -11.41723045	    -71.09455403	      9.26800562	     -5.65425566	     -7.35103191	      5.44636476	     17.44800164
      3.13000000	     -1.50683555	     -3.69206899	     -8.64604613	     -0.34948954	      0.87699907	      0.19780128	     14.05786701	     -1.62520852	     -2.84361399	    -24.63060352	     13.18299008	      4.72687339	     24.10618285	    -11.85940438	    -12.70680258	    -69.54711441	      9.48831566	     -4.79342723	     -7.45236954	      5.16095557	     18.38097310
      3.14000000	     -1.37092585	     -3.51018175	     -8.39807111	     -0.34218517	      0.87865842	      0.19865153	     12.99095040	     -1.87321958	     -3.14993747	    -23.91113308	     13.31693378	      4.77924177	     24.61285206	    -11.87305696	    -14.05330462	    -67.79181038	      9.69909847	     -4.16622039	     -7.49459125	      4.89557012	     19.36275210
      3.15000000	     -1.28369296	     -3.36333798	     -8.11637604	     -0.33487827	      0.88014863	      0.19932531	     11.93737711	     -2.08609326	     -3.51281831	    -23.13596374	     13.43492597	      4.85688338	     25.08062992	    -11.93415097	    -15.33326238	    -65.84648115	      9.90255196	     -3.56967120	     -7.47060621	      4.67964185	     20.26177768
      3.16000000	     -1.24407178	     -3.24672533	     -7.83375839	     -0.32756722	      0.88143801	      0.19992924	     10.93170087	     -2.25284792	     -3.88116479	    -22.36499421	     13.51597335	      4.92720185	     25.50130145	    -12.07206156	    -16.60611937	    -63.74552656	     10.11985545	     -3.20581135	     -7.37862749	      4.48981294	     21.13626963
      3.17000000	     -1.23841163	     -3.16161889	     -7.51785386	     -0.32024271	      0.88254000	      0.20038067	      9.94801604	     -2.38489889	     -4.29037151	    -21.58472132	     13.58178609	      4.99836693	     25.87450879	    -12.25512679	    -17.81627164	    -61.49929500	     10.33344753	     -3.01595307	     -7.23574027	      4.33779061	     21.92277545
      3.18000000	     -1.24048788	     -3.10865681	     -7.16317538	     -0.31290954	      0.88348070	      0.20067877	      8.95881685	     -2.48366583	     -4.74733135	    -20.79714162	     13.66776887	      5.07841822	     26.18040955	    -12.46441738	    -18.93874718	    -59.12036233	     10.51272400	     -2.99459379	     -7.07637284	      4.21539120	     22.65092533
      3.19000000	     -1.25873019	     -3.08915993	     -6.77241517	     -0.30556468	      0.88423318	      0.20080782	      7.97781233	     -2.54433334	     -5.23355328	    -20.01152700	     13.74426698	      5.15746276	     26.43504077	    -12.69282199	    -19.97298740	    -56.62274760	     10.66906996	     -3.15353431	     -6.89037608	      4.13035421	     23.29494505
      3.20000000	     -1.27836879	     -3.09992570	     -6.34400525	     -0.29821068	      0.88480409	      0.20076633	      6.98821430	     -2.57139454	     -5.74771811	    -19.22558382	     13.83989352	      5.24245951	     26.63424603	    -12.91898760	    -20.89478005	    -54.02038681	     10.78290258	     -3.48352253	     -6.69612820	      4.07363764	     23.85511033
      3.21000000	     -1.30902905	     -3.13746862	     -5.88415248	     -0.29086687	      0.88517357	      0.20053156	      6.00507991	     -2.56692298	     -6.27992155	    -18.44105543	     13.93209415	      5.32812556	     26.79881559	    -13.12877324	    -21.70105181	    -51.32793138	     10.85660746	     -3.92843287	     -6.48605523	      4.04860420	     24.33200920
      3.22000000	     -1.35548220	     -3.19597355	     -5.41450659	     -0.28353319	      0.88531475	      0.20015210	      5.04148558	     -2.53312848	     -6.80148047	    -17.67037889	     14.08656112	      5.46051183	     26.94091557	    -13.32233158	    -22.40997872	    -48.57096174	     10.90539720	     -4.55818182	     -6.25460293	      4.03995545	     24.73124503
      3.23000000	     -1.40713638	     -3.27645742	     -4.90682415	     -0.27622857	      0.88526324	      0.19954462	      4.08089975	     -2.47789237	     -7.37954530	    -16.90004657	     14.20584998	      5.54484236	     27.07172732	    -13.47324096	    -22.97148015	    -45.76738123	     10.89221553	     -4.99787177	     -6.01645503	      4.05650823	     25.03717426
      3.24000000	     -1.47764857	     -3.36051172	     -4.38943822	     -0.26899427	      0.88499718	      0.19871526	      3.14955657	     -2.41684810	     -7.94392377	    -16.14001576	     14.35011628	      5.65642327	     27.20959955	    -13.56244023	    -23.39596293	    -42.93863447	     10.86441260	     -5.40644626	     -5.76119174	      4.08028234	     25.28886901
      3.25000000	     -1.57122909	     -3.44833566	     -3.86305331	     -0.26183679	      0.88451905	      0.19770349	      2.25597773	     -2.34775749	     -8.50554101	    -15.39753040	     14.50827620	      5.79005156	     27.37199231	    -13.59386987	    -23.66292025	    -40.12188989	     10.81918507	     -5.69128290	     -5.48272127	      4.09963741	     25.49138780
      3.26000000	     -1.70853206	     -3.53834248	     -3.31206799	     -0.25479712	      0.88381782	      0.19645574	      1.43254950	     -2.27683103	     -9.10157454	    -14.68857448	     14.64236880	      5.89314403	     27.60118260	    -13.56020287	    -23.74880126	    -37.35744469	     10.71710163	     -5.77366987	     -5.16248865	      4.12262970	     25.62440709
